<?xml version="1.0" encoding="UTF-8"?>
<svg id="Layer_2" data-name="Layer 2" xmlns="http://www.w3.org/2000/svg" xmlns:xlink="http://www.w3.org/1999/xlink" viewBox="0 0 232.9 225.4">
  <defs>
    <style>
      .cls-1 {
        fill: url(#linear-gradient);
      }

      .cls-1, .cls-2, .cls-3, .cls-4, .cls-5, .cls-6 {
        stroke-width: 0px;
      }

      .cls-3 {
        fill: none;
      }

      .cls-4 {
        fill: #fff;
      }

      .cls-5 {
        fill: #fabc2d;
      }

      .cls-6 {
        fill: url(#linear-gradient-2);
      }
    </style>
    <linearGradient id="linear-gradient" x1="135.4" y1="112.7" x2="184.4" y2="112.7" gradientUnits="userSpaceOnUse">
      <stop offset="0" stop-color="#fabc2d"/>
      <stop offset="1" stop-color="#f05840"/>
    </linearGradient>
    <linearGradient id="linear-gradient-2" x1="100.7" y1="112.7" x2="131.9" y2="112.7" xlink:href="#linear-gradient"/>
  </defs>
  <g id="Layer_1-2" data-name="Layer 1">
    <g>
      <g>
        <polygon class="cls-4" points="75.3 93.2 41.1 73.5 6.9 93.2 6.9 132.8 40.9 152.4 75.3 132.5 75.3 93.2"/>
        <polygon class="cls-4" points="150.7 93.2 116.5 73.5 82.2 93.2 82.2 132.5 116.5 152.2 150.7 132.5 150.7 93.2"/>
        <polygon class="cls-4" points="44.6 158.5 44.6 197.7 78.8 217.5 113 197.7 113 158.5 78.8 138.7 44.6 158.5"/>
        <polygon class="cls-4" points="113 67.2 113 27.7 78.8 8 44.6 27.7 44.6 67.2 78.8 87 113 67.2"/>
        <polygon class="cls-4" points="119.9 158.5 119.9 197.7 154.1 217.5 188.4 197.7 188.4 158.5 154.1 138.7 119.9 158.5"/>
        <polygon class="cls-4" points="188.4 67.2 188.4 27.7 154.1 8 119.9 27.7 119.9 67.2 154.1 87 188.4 67.2"/>
        <polygon class="cls-4" points="157.6 93.2 157.6 132.5 192.1 152.4 226 132.8 226 93.2 191.8 73.5 157.6 93.2"/>
        <path class="cls-2" d="m195.3,23.7L154.1,0l-37.7,21.7L78.8,0l-41.1,23.7v43.8L0,89.3v47.5l37.7,21.7v43.2l41.1,23.7,37.7-21.7,37.7,21.7,41.1-23.7v-43.2l37.7-21.7v-47.5l-37.7-21.7V23.7Zm-75.3,4l34.2-19.8,34.2,19.8v39.5l-34.2,19.8-34.2-19.8V27.7Zm-75.3,0L78.8,8l34.2,19.8v39.5l-34.2,19.8-34.2-19.8V27.7ZM6.9,132.8v-39.5l34.2-19.8,34.2,19.8v39.2l-34.5,19.9-34-19.6Zm106.1,65l-34.2,19.8-34.2-19.8v-39.2l34.2-19.8,34.2,19.8v39.2Zm-30.8-65.2v-39.2l34.2-19.8,34.2,19.8v39.2l-34.2,19.8-34.2-19.8Zm106.1,65.2l-34.2,19.8-34.2-19.8v-39.2l34.2-19.8,34.2,19.8v39.2Zm37.7-104.5v39.5l-34,19.6-34.5-19.9v-39.2l34.2-19.8,34.2,19.8Z"/>
      </g>
      <g>
        <polygon class="cls-3" points="95.9 106.4 95.8 106.3 95.8 119.1 95.9 119.1 95.9 106.4"/>
        <polygon class="cls-1" points="184.4 112.7 172.1 98.8 147.8 91.6 139.5 105.5 135.4 112.7 139.5 119.9 147.8 133.9 172.1 126.6 184.4 112.7"/>
        <polygon class="cls-5" points="73.9 106.4 73.9 119.1 81.7 123.6 81.7 101.8 73.9 106.4"/>
        <polygon class="cls-2" points="136.7 143.3 136.7 142.8 127.3 127 135.4 141 136.7 143.3"/>
        <polygon class="cls-2" points="127.3 98.4 136.7 82.6 136.7 82.2 135.4 84.4 127.3 98.4"/>
        <polygon class="cls-2" points="139.5 105.5 135.3 112.7 139.5 119.9 135.4 112.7 139.5 105.5"/>
        <polygon class="cls-2" points="147.6 133.9 147.8 133.9 139.5 119.9 147.6 133.9"/>
        <polygon class="cls-2" points="127.3 127 123.1 119.8 119.1 112.7 123.1 105.7 127.3 98.4 118.8 112.7 127.3 127"/>
        <polygon class="cls-2" points="147.6 91.5 139.5 105.5 147.8 91.6 147.6 91.5"/>
        <polygon class="cls-3" points="136.7 59 116.3 47.2 95.8 59 116.3 47.2 136.7 59"/>
        <path class="cls-2" d="m195,103.4l-12.3-13.9-2.7-3-3.9-1.2-24.5-7.3-.8-.3h0v-26.8l-7.1-4.1-20.4-11.8-7.1-4.1-7.1,4.1-20.4,11.8-7.1,4.1v30.9h0s-5.5,3.2-5.5,3.2l-11,6.4-8.7,5v32.8l8.7,5,11,6.4,5.5,3.2v30.9l7.1,4.1,20.4,11.8,7.1,4.1,7.1-4.1,20.4-11.8,7.1-4.1v-26.8l.8-.3,24.5-7.3,3.9-1.2,2.7-3,12.3-13.9,8.2-9.3-8.2-9.3Zm-113.3-1.6v21.8h0s-7.8-4.5-7.8-4.5v-12.7l7.8-4.5h0Zm55,41.4v23.1l-20.4,11.8-20.4-11.8v-27.2h0V59l20.4-11.8,20.4,11.8v23.1h0v.5l-9.4,15.8-4.2,7.3-4.1,7.1,4.1,7.1,4.2,7.2,9.4,15.8v.5h0s0,0,0,0Zm17.4-25.3l7.3,11.8-13.6,4.1h-.2c0,0-8.1-14-8.1-14l-4.2-7.1,4.3-7.2,8.1-14h.2c0,0,13.6,4.1,13.6,4.1l-7.3,11.8-3.3,5.3,3.3,5.3Zm18.3,8.3l-8.4-13.6,8.4-13.6,12,13.6-12,13.6Z"/>
        <polygon class="cls-5" points="116.3 47.2 95.8 59 95.8 79.3 95.8 86.2 95.8 106.3 95.8 119.1 95.8 139.2 95.8 139.2 95.8 143.7 95.8 166.4 116.3 178.2 136.7 166.4 136.7 143.3 135.4 141 127.3 127 118.8 112.7 127.3 98.4 135.4 84.4 136.7 82.2 136.7 82.2 136.7 59 116.3 47.2"/>
        <polygon class="cls-6" points="100.7 163.6 100.7 61.8 116.3 52.8 131.9 61.8 131.9 80.9 123.2 96 113.2 112.7 123.2 129.5 131.9 144.6 131.9 163.6 116.3 172.6 100.7 163.6"/>
      </g>
    </g>
  </g>
</svg>